<svg xmlns="http://www.w3.org/2000/svg" xmlns:xlink="http://www.w3.org/1999/xlink" width="60" zoomAndPan="magnify" viewBox="0 0 45 44.999999" height="60" preserveAspectRatio="xMidYMid meet" version="1.0"><defs><g/><clipPath id="3946a1e3fc"><path d="M 33 11 L 44.738281 11 L 44.738281 26 L 33 26 Z M 33 11 " clip-rule="nonzero"/></clipPath><clipPath id="ef5dd82ae1"><path d="M 20 15 L 36 15 L 36 27.742188 L 20 27.742188 Z M 20 15 " clip-rule="nonzero"/></clipPath><clipPath id="b333acd01b"><path d="M 0.488281 14 L 33 14 L 33 22 L 0.488281 22 Z M 0.488281 14 " clip-rule="nonzero"/></clipPath></defs><g clip-path="url(#3946a1e3fc)"><path fill="#000000" d="M 41.300781 20.042969 C 41.300781 20.042969 38.039062 19.582031 37.945312 16.964844 C 37.945312 16.964844 40.253906 17.210938 41.332031 17.519531 C 41.332031 17.519531 39.023438 14.011719 33.546875 13.210938 C 33.546875 13.210938 34.46875 12.289062 34.40625 11.394531 C 34.347656 10.503906 44.503906 15.644531 42.933594 20.507812 C 42.933594 20.507812 40.316406 21.214844 39.179688 22.230469 C 39.179688 22.230469 43.210938 22.628906 44.441406 24.9375 C 44.441406 24.9375 41.792969 25 40.164062 24.628906 C 38.53125 24.261719 35.667969 24.078125 34.4375 25.398438 C 34.4375 25.398438 36.65625 21.367188 41.300781 20.042969 " fill-opacity="1" fill-rule="nonzero"/></g><path fill="#000000" d="M 30.105469 23.90625 C 30.84375 24.460938 32.867188 25 32.867188 25 C 30.128906 25 28.375 23.613281 28.375 23.613281 C 30.589844 21.492188 35.175781 20.691406 35.175781 20.691406 C 32.074219 21.582031 30.105469 23.90625 30.105469 23.90625 " fill-opacity="1" fill-rule="nonzero"/><g clip-path="url(#ef5dd82ae1)"><path fill="#000000" d="M 24.996094 21.652344 C 25.738281 21.769531 26.492188 21.578125 27.082031 21.113281 C 29.882812 18.910156 34.253906 15.890625 34.253906 15.890625 C 35.175781 16.042969 35.730469 16.8125 35.730469 16.8125 C 32.777344 17.335938 26.867188 22.597656 26.867188 22.597656 C 25.398438 25.046875 27.914062 27.371094 27.914062 27.371094 C 27.914062 27.371094 26.464844 26.632812 25.203125 24.570312 C 23.941406 22.507812 20.15625 21.492188 20.15625 21.492188 C 21.472656 21.1875 23.65625 21.441406 24.996094 21.652344 " fill-opacity="1" fill-rule="nonzero"/></g><g clip-path="url(#b333acd01b)"><path fill="#000000" d="M 8.859375 14.84375 C 8.859375 14.84375 11.90625 20.136719 18.769531 19.890625 C 18.769531 19.890625 18.742188 15.613281 24.433594 14.84375 C 30.128906 14.074219 33.054688 15.550781 32.808594 16.195312 L 29.390625 18.9375 C 29.390625 18.9375 30.777344 17.183594 30.652344 16.472656 C 30.527344 15.765625 24.128906 14.410156 21.941406 16.78125 C 19.757812 19.152344 20.15625 21.152344 18.402344 21.398438 C 16.648438 21.644531 12.03125 19.953125 10.121094 17.796875 C 8.214844 15.644531 5.167969 14.996094 2.367188 15.304688 L 4.367188 17.707031 C 4.367188 17.707031 1.78125 16.9375 0.488281 14.84375 C 0.488281 14.84375 4.335938 14.011719 8.859375 14.84375 " fill-opacity="1" fill-rule="nonzero"/></g><path fill="#000000" d="M 5.84375 17.949219 C 12.261719 18.542969 15.585938 23.722656 15.585938 23.722656 C 20.15625 24.183594 22.234375 25.9375 22.234375 25.9375 C 19.003906 24.414062 15.03125 25 15.03125 25 C 11.0625 18.9375 5.84375 17.949219 5.84375 17.949219 " fill-opacity="1" fill-rule="nonzero"/><path fill="#000000" d="M 8.292969 20.390625 C 10.617188 20.390625 12.523438 22.167969 12.734375 24.4375 C 12.089844 22.765625 10.46875 21.574219 8.566406 21.574219 C 6.101562 21.574219 4.105469 23.574219 4.105469 26.039062 C 4.105469 26.179688 4.113281 26.316406 4.125 26.453125 C 3.933594 25.957031 3.828125 25.417969 3.828125 24.855469 C 3.828125 22.386719 5.828125 20.390625 8.292969 20.390625 " fill-opacity="1" fill-rule="nonzero"/><g fill="#000000" fill-opacity="1"><g transform="translate(8.18844, 33.703494)"><g><path d="M 2.484375 0 L 2.34375 -1.640625 L 2.328125 -1.640625 L 1.765625 -0.015625 L 1.390625 -0.015625 L 0.828125 -1.640625 L 0.8125 -1.640625 L 0.6875 0 L 0.046875 0 L 0.296875 -2.765625 L 0.96875 -2.765625 L 1.578125 -1.171875 L 2.1875 -2.765625 L 2.859375 -2.765625 L 3.109375 0 Z M 2.484375 0 "/></g></g></g><g fill="#000000" fill-opacity="1"><g transform="translate(11.522652, 33.703494)"><g><path d="M 0.078125 -1.375 C 0.078125 -1.78125 0.210938 -2.117188 0.484375 -2.390625 C 0.753906 -2.671875 1.082031 -2.8125 1.46875 -2.8125 C 1.851562 -2.8125 2.179688 -2.671875 2.453125 -2.390625 C 2.722656 -2.117188 2.859375 -1.78125 2.859375 -1.375 C 2.859375 -0.976562 2.722656 -0.640625 2.453125 -0.359375 C 2.191406 -0.0859375 1.863281 0.046875 1.46875 0.046875 C 1.0625 0.046875 0.726562 -0.0859375 0.46875 -0.359375 C 0.207031 -0.628906 0.078125 -0.96875 0.078125 -1.375 Z M 0.75 -1.375 C 0.75 -1.226562 0.769531 -1.097656 0.8125 -0.984375 C 0.863281 -0.867188 0.941406 -0.769531 1.046875 -0.6875 C 1.160156 -0.601562 1.300781 -0.5625 1.46875 -0.5625 C 1.695312 -0.5625 1.867188 -0.640625 1.984375 -0.796875 C 2.109375 -0.960938 2.171875 -1.15625 2.171875 -1.375 C 2.171875 -1.601562 2.109375 -1.796875 1.984375 -1.953125 C 1.867188 -2.117188 1.695312 -2.203125 1.46875 -2.203125 C 1.238281 -2.203125 1.0625 -2.117188 0.9375 -1.953125 C 0.8125 -1.796875 0.75 -1.601562 0.75 -1.375 Z M 0.75 -1.375 "/></g></g></g><g fill="#000000" fill-opacity="1"><g transform="translate(14.62588, 33.703494)"><g><path d="M 0.03125 -2.203125 L 0.03125 -2.765625 L 1.96875 -2.765625 L 1.96875 -2.203125 L 1.3125 -2.203125 L 1.3125 0 L 0.6875 0 L 0.6875 -2.203125 Z M 0.03125 -2.203125 "/></g></g></g><g fill="#000000" fill-opacity="1"><g transform="translate(16.788431, 33.703494)"><g><path d="M 0.078125 -1.375 C 0.078125 -1.78125 0.210938 -2.117188 0.484375 -2.390625 C 0.753906 -2.671875 1.082031 -2.8125 1.46875 -2.8125 C 1.851562 -2.8125 2.179688 -2.671875 2.453125 -2.390625 C 2.722656 -2.117188 2.859375 -1.78125 2.859375 -1.375 C 2.859375 -0.976562 2.722656 -0.640625 2.453125 -0.359375 C 2.191406 -0.0859375 1.863281 0.046875 1.46875 0.046875 C 1.0625 0.046875 0.726562 -0.0859375 0.46875 -0.359375 C 0.207031 -0.628906 0.078125 -0.96875 0.078125 -1.375 Z M 0.75 -1.375 C 0.75 -1.226562 0.769531 -1.097656 0.8125 -0.984375 C 0.863281 -0.867188 0.941406 -0.769531 1.046875 -0.6875 C 1.160156 -0.601562 1.300781 -0.5625 1.46875 -0.5625 C 1.695312 -0.5625 1.867188 -0.640625 1.984375 -0.796875 C 2.109375 -0.960938 2.171875 -1.15625 2.171875 -1.375 C 2.171875 -1.601562 2.109375 -1.796875 1.984375 -1.953125 C 1.867188 -2.117188 1.695312 -2.203125 1.46875 -2.203125 C 1.238281 -2.203125 1.0625 -2.117188 0.9375 -1.953125 C 0.8125 -1.796875 0.75 -1.601562 0.75 -1.375 Z M 0.75 -1.375 "/></g></g></g><g fill="#000000" fill-opacity="1"><g transform="translate(19.891659, 33.703494)"><g><path d="M 1.21875 -2.8125 C 1.363281 -2.8125 1.507812 -2.785156 1.65625 -2.734375 C 1.800781 -2.691406 1.90625 -2.648438 1.96875 -2.609375 L 2.078125 -2.546875 L 1.8125 -2.046875 C 1.789062 -2.054688 1.765625 -2.070312 1.734375 -2.09375 C 1.703125 -2.113281 1.632812 -2.140625 1.53125 -2.171875 C 1.4375 -2.210938 1.347656 -2.234375 1.265625 -2.234375 C 1.160156 -2.234375 1.078125 -2.210938 1.015625 -2.171875 C 0.960938 -2.128906 0.9375 -2.066406 0.9375 -1.984375 C 0.9375 -1.953125 0.945312 -1.914062 0.96875 -1.875 C 1 -1.84375 1.046875 -1.804688 1.109375 -1.765625 C 1.171875 -1.734375 1.226562 -1.707031 1.28125 -1.6875 C 1.332031 -1.664062 1.410156 -1.632812 1.515625 -1.59375 C 1.691406 -1.519531 1.84375 -1.414062 1.96875 -1.28125 C 2.09375 -1.15625 2.15625 -1.007812 2.15625 -0.84375 C 2.15625 -0.6875 2.125 -0.546875 2.0625 -0.421875 C 2.007812 -0.304688 1.929688 -0.210938 1.828125 -0.140625 C 1.734375 -0.078125 1.625 -0.03125 1.5 0 C 1.382812 0.03125 1.253906 0.046875 1.109375 0.046875 C 0.992188 0.046875 0.875 0.0351562 0.75 0.015625 C 0.632812 -0.00390625 0.535156 -0.0351562 0.453125 -0.078125 C 0.378906 -0.117188 0.3125 -0.15625 0.25 -0.1875 C 0.1875 -0.21875 0.144531 -0.25 0.125 -0.28125 L 0.078125 -0.3125 L 0.390625 -0.84375 C 0.421875 -0.820312 0.457031 -0.789062 0.5 -0.75 C 0.550781 -0.71875 0.632812 -0.671875 0.75 -0.609375 C 0.863281 -0.554688 0.96875 -0.53125 1.0625 -0.53125 C 1.332031 -0.53125 1.46875 -0.617188 1.46875 -0.796875 C 1.46875 -0.835938 1.457031 -0.875 1.4375 -0.90625 C 1.414062 -0.9375 1.378906 -0.96875 1.328125 -1 C 1.285156 -1.03125 1.242188 -1.054688 1.203125 -1.078125 C 1.171875 -1.097656 1.113281 -1.128906 1.03125 -1.171875 C 0.945312 -1.210938 0.882812 -1.238281 0.84375 -1.25 C 0.675781 -1.332031 0.546875 -1.4375 0.453125 -1.5625 C 0.359375 -1.6875 0.3125 -1.820312 0.3125 -1.96875 C 0.3125 -2.21875 0.398438 -2.421875 0.578125 -2.578125 C 0.765625 -2.734375 0.976562 -2.8125 1.21875 -2.8125 Z M 1.21875 -2.8125 "/></g></g></g><g fill="#000000" fill-opacity="1"><g transform="translate(22.308627, 33.703494)"><g><path d="M 0.03125 -2.203125 L 0.03125 -2.765625 L 1.96875 -2.765625 L 1.96875 -2.203125 L 1.3125 -2.203125 L 1.3125 0 L 0.6875 0 L 0.6875 -2.203125 Z M 0.03125 -2.203125 "/></g></g></g><g fill="#000000" fill-opacity="1"><g transform="translate(24.471177, 33.703494)"><g><path d="M 2.328125 -2.765625 L 2.328125 -0.984375 C 2.328125 -0.640625 2.234375 -0.378906 2.046875 -0.203125 C 1.859375 -0.0351562 1.585938 0.046875 1.234375 0.046875 C 0.890625 0.046875 0.625 -0.0351562 0.4375 -0.203125 C 0.257812 -0.378906 0.171875 -0.640625 0.171875 -0.984375 L 0.171875 -2.765625 L 0.796875 -2.765625 L 0.796875 -1.15625 C 0.796875 -0.9375 0.828125 -0.78125 0.890625 -0.6875 C 0.960938 -0.601562 1.078125 -0.5625 1.234375 -0.5625 C 1.398438 -0.5625 1.515625 -0.601562 1.578125 -0.6875 C 1.648438 -0.78125 1.6875 -0.9375 1.6875 -1.15625 L 1.6875 -2.765625 Z M 2.328125 -2.765625 "/></g></g></g><g fill="#000000" fill-opacity="1"><g transform="translate(27.129174, 33.703494)"><g><path d="M 0.203125 -2.765625 L 1 -2.765625 C 1.382812 -2.765625 1.710938 -2.628906 1.984375 -2.359375 C 2.253906 -2.097656 2.390625 -1.769531 2.390625 -1.375 C 2.390625 -0.976562 2.253906 -0.648438 1.984375 -0.390625 C 1.710938 -0.128906 1.382812 0 1 0 L 0.203125 0 Z M 0.828125 -0.5625 L 0.921875 -0.5625 C 1.148438 -0.5625 1.335938 -0.640625 1.484375 -0.796875 C 1.628906 -0.953125 1.707031 -1.144531 1.71875 -1.375 C 1.71875 -1.613281 1.644531 -1.8125 1.5 -1.96875 C 1.351562 -2.125 1.160156 -2.203125 0.921875 -2.203125 L 0.828125 -2.203125 Z M 0.828125 -0.5625 "/></g></g></g><g fill="#000000" fill-opacity="1"><g transform="translate(29.767084, 33.703494)"><g><path d="M 1.78125 -2.765625 L 1.78125 -2.203125 L 0.828125 -2.203125 L 0.828125 -1.65625 L 1.734375 -1.65625 L 1.734375 -1.109375 L 0.828125 -1.109375 L 0.828125 -0.546875 L 1.78125 -0.546875 L 1.78125 0 L 0.203125 0 L 0.203125 -2.765625 Z M 1.78125 -2.765625 "/></g></g></g><g fill="#000000" fill-opacity="1"><g transform="translate(31.876073, 33.703494)"><g><path d="M 0.828125 -1.71875 L 0.828125 0 L 0.203125 0 L 0.203125 -2.765625 L 0.828125 -2.765625 L 1.921875 -1.046875 L 1.9375 -1.046875 L 1.9375 -2.765625 L 2.5625 -2.765625 L 2.5625 0 L 1.9375 0 L 0.84375 -1.71875 Z M 0.828125 -1.71875 "/></g></g></g><g fill="#000000" fill-opacity="1"><g transform="translate(34.80857, 33.703494)"><g><path d="M 0.03125 -2.203125 L 0.03125 -2.765625 L 1.96875 -2.765625 L 1.96875 -2.203125 L 1.3125 -2.203125 L 1.3125 0 L 0.6875 0 L 0.6875 -2.203125 Z M 0.03125 -2.203125 "/></g></g></g></svg>