<svg xmlns="http://www.w3.org/2000/svg" xmlns:xlink="http://www.w3.org/1999/xlink" width="500" zoomAndPan="magnify" viewBox="0 0 375 374.999991" height="500" preserveAspectRatio="xMidYMid meet" version="1.0"><defs><g/></defs><g fill="#000000" fill-opacity="1"><g transform="translate(11.77496, 308.482676)"><g><path d="M 17.4375 -31.703125 L 17.4375 -164.09375 L 15.453125 -164.09375 L 0 -195.015625 L 17.4375 -264.375 L 86.015625 -264.375 L 101.859375 -231.875 L 101.859375 -185.09375 L 139.125 -185.09375 L 139.125 -264.375 L 208.484375 -264.375 L 223.9375 -234.25 L 223.9375 0 L 155.765625 0 L 139.125 -31.703125 L 139.125 -84.421875 L 101.859375 -84.421875 L 101.859375 0 L 32.5 0 Z M 80.859375 -36.859375 L 80.859375 -121.6875 L 146.65625 -121.6875 L 146.65625 -36.859375 L 202.546875 -36.859375 L 202.546875 -257.234375 L 146.65625 -257.234375 L 146.65625 -178.359375 L 80.859375 -178.359375 L 80.859375 -257.234375 L 22.59375 -257.234375 L 8.328125 -200.953125 L 24.96875 -200.953125 L 24.96875 -36.859375 Z M 80.859375 -36.859375 "/></g></g></g><g fill="#000000" fill-opacity="1"><g transform="translate(274.876343, 324.954618)"><g><path d="M 8.03125 -35.09375 L -12.0625 -108.09375 L -13.59375 -107.65625 L -35.734375 -132.8125 L -36.890625 -198.28125 L -35.375 -198.6875 L -45.328125 -209.515625 L -46.71875 -268.328125 L 12.140625 -284.53125 L 36.984375 -258.5 L 38.046875 -200.8125 L 35.375 -200.078125 L 45.0625 -188.765625 L 65.578125 -114.25 L 67.484375 -114.765625 L 88.84375 -89.40625 L 90.1875 -24.828125 L 30.953125 -8.515625 Z M 61.6875 -55.203125 L 61.15625 -106.453125 L 48.15625 -102.875 L 19.546875 -206.8125 L -30.515625 -193.03125 L -29.109375 -141.640625 L -14.96875 -145.53125 L 13.53125 -41.953125 Z M 7.8125 -231.53125 L 6.65625 -276.03125 L -40.34375 -263.09375 L -38.8125 -218.703125 Z M 7.8125 -231.53125 "/></g></g></g></svg>